<?xml version="1.0" encoding="UTF-8" standalone="no"?>
<!DOCTYPE svg PUBLIC "-//W3C//DTD SVG 1.1//EN" "http://www.w3.org/Graphics/SVG/1.1/DTD/svg11.dtd">
<svg version="1.1" xmlns="http://www.w3.org/2000/svg" xmlns:xlink="http://www.w3.org/1999/xlink" preserveAspectRatio="xMidYMid meet" viewBox="0 0 640 640" width="50" height="50"><defs><path d="M400.46 409.11C402.91 411.76 402.91 415.85 400.46 418.49C384.54 435.63 341.15 482.34 325.23 499.47C322.88 502 318.87 502 316.52 499.47C306.34 488.51 280.14 460.3 269.95 449.34C267.49 446.69 267.49 442.6 269.95 439.96C285.87 422.82 329.26 376.11 345.17 358.98C347.53 356.44 351.53 356.44 353.89 358.98C364.07 369.94 390.27 398.15 400.46 409.11Z" id="c1eNKGuQ82"></path><path d="M634.52 137.66C642.04 145.75 642.04 158.27 634.52 166.35C580.61 224.41 432.18 384.24 378.26 442.3C371.07 450.05 358.81 450.05 351.62 442.3C342.53 432.52 328.61 417.53 319.53 407.75C312.02 399.66 312.02 387.15 319.53 379.06C373.45 321 521.88 161.17 575.79 103.11C582.99 95.37 595.25 95.37 602.44 103.11C611.52 112.89 625.44 127.88 634.52 137.66Z" id="a1cGrmyZIs"></path><path d="M5.63 137.66C-1.88 145.75 -1.88 158.27 5.63 166.35C59.55 224.41 207.98 384.24 261.9 442.3C269.09 450.05 281.35 450.05 288.54 442.3C297.62 432.52 311.54 417.53 320.63 407.75C328.14 399.66 328.14 387.15 320.63 379.06C266.71 321 118.28 161.17 64.36 103.11C57.17 95.37 44.91 95.37 37.72 103.11C28.64 112.89 14.71 127.88 5.63 137.66Z" id="c5w4MmFdv2"></path><path d="M255.62 427.82C253.63 429.96 253.63 433.28 255.62 435.43C268.53 449.34 303.74 487.25 316.66 501.16C318.56 503.21 321.82 503.21 323.73 501.16C333.96 490.13 361.15 460.86 371.38 449.84C373.38 447.69 373.38 444.37 371.38 442.22C358.47 428.32 323.26 390.4 310.35 376.5C308.44 374.44 305.18 374.44 303.28 376.5C293.04 387.52 265.86 416.79 255.62 427.82Z" id="a1XICykhTY"></path></defs><g><g><g><g><use xlink:href="#c1eNKGuQ82" opacity="1" fill="#999999" fill-opacity="1"></use></g><g><g><g><use xlink:href="#a1cGrmyZIs" opacity="1" fill="#999999" fill-opacity="1"></use></g><g><use xlink:href="#c5w4MmFdv2" opacity="1" fill="#999999" fill-opacity="1"></use></g></g><g><use xlink:href="#a1XICykhTY" opacity="1" fill="#999999" fill-opacity="1"></use></g></g></g></g></g></svg>